<svg width="40" height="36" viewBox="0 0 40 36" fill="none" xmlns="http://www.w3.org/2000/svg">
<path d="M16.5941 2.40064L18.5279 0.578617C19.3467 -0.192872 20.6707 -0.192872 21.4808 0.578617L38.4146 16.5255C39.2334 17.2969 39.2334 18.5445 38.4146 19.3077L21.4808 35.2628C20.662 36.0343 19.338 36.0343 18.5279 35.2628L16.5941 33.4408C15.7665 32.6611 15.784 31.3889 16.6289 30.6256L27.1254 21.2036H2.09059C0.932056 21.2036 0 20.3254 0 19.2339V16.6075C0 15.516 0.932056 14.6378 2.09059 14.6378H27.1254L16.6289 5.21576C15.7753 4.45248 15.7578 3.18034 16.5941 2.40064Z" fill="#896035"/>
</svg>
