<svg width="40" height="37" viewBox="0 0 40 37" fill="none" xmlns="http://www.w3.org/2000/svg">
<g clip-path="url(#clip0)">
<path d="M22.993 34.2107L21.011 36.0747C20.1719 36.864 18.8149 36.864 17.9846 36.0747L0.629394 19.7607C-0.209798 18.9714 -0.209798 17.6952 0.629394 16.9144L17.9846 0.591939C18.8238 -0.197313 20.1808 -0.197313 21.011 0.591939L22.993 2.45592C23.8411 3.25357 23.8232 4.55499 22.9573 5.33585L12.1995 14.9748H37.8574C39.0448 14.9748 40 15.8732 40 16.9899V19.6767C40 20.7934 39.0448 21.6919 37.8574 21.6919H12.1995L22.9573 31.3308C23.8322 32.1117 23.85 33.4131 22.993 34.2107Z" fill="#896035"/>
</g>
<defs>
<clipPath id="clip0">
<rect width="40" height="36.6667" fill="white"/>
</clipPath>
</defs>
</svg>
