<svg width="128" height="124" viewBox="0 0 128 124" fill="none" xmlns="http://www.w3.org/2000/svg">
<path d="M49.7342 10.9057C54.2244 -2.91392 73.7756 -2.9139 78.2658 10.9058L83.0837 25.7336C85.0918 31.9139 90.8511 36.0983 97.3495 36.0983H112.94C127.471 36.0983 133.513 54.6925 121.757 63.2336L109.144 72.3976C103.887 76.2173 101.687 82.9878 103.695 89.1681L108.513 103.996C113.003 117.816 97.1858 129.307 85.4301 120.766L72.8168 111.602C67.5595 107.783 60.4405 107.783 55.1832 111.602L42.5699 120.766C30.8142 129.307 14.997 117.816 19.4873 103.996L24.3052 89.1681C26.3133 82.9878 24.1134 76.2173 18.8561 72.3976L6.2428 63.2335C-5.51291 54.6925 0.528744 36.0983 15.0596 36.0983H30.6505C37.1489 36.0983 42.9082 31.9139 44.9163 25.7336L49.7342 10.9057Z" fill="#F5D58E"/>
</svg>
