<svg width="70" height="56" viewBox="0 0 70 56" fill="none" xmlns="http://www.w3.org/2000/svg">
<path d="M63.4375 28H52.5V20C52.5 15.5875 56.4238 12 61.25 12H62.3438C64.1621 12 65.625 10.6625 65.625 9V3C65.625 1.3375 64.1621 0 62.3438 0H61.25C49.1641 0 39.375 8.95 39.375 20V50C39.375 53.3125 42.3145 56 45.9375 56H63.4375C67.0605 56 70 53.3125 70 50V34C70 30.6875 67.0605 28 63.4375 28ZM24.0625 28H13.125V20C13.125 15.5875 17.0488 12 21.875 12H22.9688C24.7871 12 26.25 10.6625 26.25 9V3C26.25 1.3375 24.7871 0 22.9688 0H21.875C9.78906 0 0 8.95 0 20V50C0 53.3125 2.93945 56 6.5625 56H24.0625C27.6855 56 30.625 53.3125 30.625 50V34C30.625 30.6875 27.6855 28 24.0625 28Z" fill="#896035"/>
</svg>
